<?xml version="1.0" encoding="utf-8"?>
<!-- Generator: Adobe Illustrator 23.0.5, SVG Export Plug-In . SVG Version: 6.00 Build 0)  -->
<svg version="1.1" id="Capa_1" xmlns="http://www.w3.org/2000/svg" xmlns:xlink="http://www.w3.org/1999/xlink" x="0px" y="0px"
	 viewBox="0 0 48 48" style="enable-background:new 0 0 48 48;" xml:space="preserve">
<style type="text/css">
	.st0{fill:#0071FF;}
</style>
<path class="st0" d="M24,26.1l6.5,6.4c0.3,0.3,0.6,0.5,1,0.5s0.8-0.2,1-0.5c0.3-0.3,0.5-0.6,0.5-1s-0.1-0.8-0.5-1L26.1,24l6.4-6.5
	c0.3-0.3,0.5-0.6,0.5-1s-0.1-0.8-0.5-1.1c-0.3-0.3-0.6-0.4-1-0.4s-0.8,0.2-1,0.4L24,21.9l-6.4-6.4c-0.3-0.3-0.7-0.4-1.1-0.4
	s-0.8,0.2-1.1,0.4c-0.3,0.3-0.4,0.7-0.4,1.1s0.2,0.8,0.4,1l6.4,6.5l-6.4,6.5c-0.3,0.3-0.4,0.6-0.4,1s0.2,0.8,0.4,1
	c0.3,0.3,0.7,0.5,1.1,0.5s0.8-0.2,1.1-0.5L24,26.1z M24,44c-2.7,0-5.3-0.5-7.8-1.6c-2.4-1-4.6-2.5-6.4-4.3s-3.3-3.9-4.3-6.4
	S4,26.7,4,24c0-2.8,0.5-5.4,1.6-7.8s2.5-4.6,4.3-6.4s3.9-3.2,6.4-4.3S21.3,4,24,4c2.8,0,5.4,0.5,7.8,1.6s4.6,2.5,6.4,4.3
	s3.2,3.9,4.3,6.4c1.1,2.4,1.6,5,1.6,7.8c0,2.7-0.5,5.3-1.6,7.8c-1,2.4-2.5,4.6-4.3,6.4s-3.9,3.3-6.4,4.3C29.4,43.5,26.8,44,24,44z
	 M24,41c4.7,0,8.8-1.7,12-5c3.3-3.3,5-7.3,5-12c0-4.7-1.6-8.8-5-12.1C32.8,8.6,28.7,7,24,7c-4.7,0-8.7,1.6-12,4.9S7,19.3,7,24
	c0,4.7,1.7,8.7,5,12S19.3,41,24,41z"/>
</svg>
