<svg xmlns="http://www.w3.org/2000/svg" x="0px" y="0px"
	 viewBox="0 0 36 36" xml:space="preserve">
<g transform="translate(1.4 1.4) scale(2.8 2.8)">
<path fill="#fff" d="M12.1,10.9L9.6,8.4C9.5,8.3,9.4,8.3,9.3,8.4L8.9,8c1.6-2.1,1.5-5.1-0.4-7c-1-1-2.3-1.5-3.7-1.5S2,0,1,1
		s-1.5,2.3-1.5,3.7S0,7.5,1,8.5c1,1,2.4,1.5,3.7,1.5C5.9,10,7.1,9.7,8,8.9l0.4,0.4c-0.1,0.1,0,0.2,0.1,0.3l2.5,2.5
		c0.2,0.2,0.4,0.2,0.6,0.2c0.2,0,0.4-0.1,0.6-0.2c0.2-0.2,0.2-0.4,0.2-0.6C12.3,11.2,12.2,11,12.1,10.9z M7.8,7.8
		C7,8.7,5.9,9.1,4.8,9.1c-1.1,0-2.2-0.4-3.1-1.3C0,6.1,0,3.4,1.7,1.7s4.5-1.7,6.1,0S9.5,6.1,7.8,7.8z"/>
</g>
</svg>